Storyline

Lewis an orphan wants to see what his mother looked like. So he invents a machine that looks through your brain so you can see your memories. But this weird kid says he's from the future and warns him about a guy in a bowler hat. The bowler hat guy messes with his invention and it fails. He decides that he's a failure and no one wants him. But the kid that warned him about the guy is here on a mission to find the bowler hat guy that wants to destroy Lewis. To prove he's from the future he takes lewis to the future. But the time machine breaks and he's stuck in the future until he fixes it. In the meantime he spends quality time with the family. But the bowler hat guy is about to alter time and it's up to Lewis to save the future.


Format                           : Matroska
Format version                   : Version 1
File size                        : 937 MiB
Duration                         : 1h 35mn
Overall bit rate                 : 1 377 Kbps
Encoded date                     : UTC 2011-12-03 10:11:04
Writing application              : AVSMatroskaFile
Writing library                  : libebml v0.7.7 + libmatroska v0.8.1

Video
ID                               : 1
Format                           : AVC
Format/Info                      : Advanced Video Codec
Format profile                   : Main@L5.1
Format settings, CABAC           : Yes
Format settings, ReFrames        : 1 frame
Codec ID                         : V_MPEG4/ISO/AVC
Duration                         : 1h 35mn
Bit rate                         : 1 158 Kbps
Width                            : 1 920 pixels
Height                           : 1 080 pixels
Display aspect ratio             : 16:9
Frame rate                       : 23.976 fps
Color space                      : YUV
Chroma subsampling               : 4:2:0
Bit depth                        : 8 bits
Scan type                        : Progressive
Bits/(Pixel*Frame)               : 0.023
Stream size                      : 788 MiB (84%)

Audio
ID                               : 2
Format                           : MPEG Audio
Format version                   : Version 1
Format profile                   : Layer 3
Codec ID                         : A_MPEG/L3
Codec ID/Hint                    : MP3
Duration                         : 1h 35mn
Bit rate mode                    : Constant
Bit rate                         : 192 Kbps
Channel(s)                       : 2 channels
Sampling rate                    : 44.1 KHz
Compression mode                 : Lossy
Stream size                      : 131 MiB (14%)
Writing library                  : LAMELAME

